#!OML:ASF H:\Pregnant\Project 1\Capture day 1\Session 1\femalepreg.ASF
:FULLY-SPECIFIED
:DEGREES
608
root 7.2036 15.7433 24.9773 42.4867 -86.9011 -25.9308
lowerback -17.9251 0.266005 -0.489902
upperback -6.84216 -0.0276419 1.29599
thorax 2.71307 -0.166865 1.63166
lowerneck -20.6204 7.18783 8.40391
upperneck 24.5618 8.2708 -3.70279
head 12.0248 3.96414 -1.41378
rclavicle 6.11263e-015 1.13307e-014
rhumerus -42.4093 6.06054 -85.982
rradius 31.4505
rwrist -8.20183
rhand -16.9887 -18.5976
rfingers 7.12502
rthumb 9.24629 -48.3748
lclavicle 6.11263e-015 1.13307e-014
lhumerus -41.4212 -21.4991 96.3353
lradius 35.2602
lwrist 41.028
lhand -26.4557 -7.1211
lfingers 7.12502
lthumb 0.105651 22.8586
rfemur -24.1079 21.0959 13.4634
rtibia 26.3733
rfoot -14.0418 -21.0486
rtoes -12.8717
lfemur 0 0 0
ltibia 0
lfoot 0 0
ltoes 0
609
root 7.21141 15.7458 24.978 41.2768 -86.8353 -24.6103
lowerback -17.9033 0.268873 -0.45401
upperback -6.88315 -0.0308141 1.27672
thorax 2.65838 -0.169567 1.5902
lowerneck -20.6242 7.13641 8.39043
upperneck 24.5149 8.17813 -3.6271
head 11.9965 3.93216 -1.39969
rclavicle 3.2054e-015 4.96962e-015
rhumerus -42.6075 6.3217 -86.1648
rradius 31.8096
rwrist -8.159
rhand -16.9978 -18.266
rfingers 7.12502
rthumb 9.23747 -48.0437
lclavicle 3.2054e-015 4.96962e-015
lhumerus -41.4945 -21.4921 96.3825
lradius 35.7312
lwrist 41.5954
lhand -26.7853 -7.30213
lfingers 7.12502
lthumb -0.212756 22.6775
rfemur -24.2528 21.1558 13.3604
rtibia 26.3904
rfoot -14.0185 -21.1995
rtoes -12.8603
lfemur 0 0 0
ltibia 0
lfoot 0 0
ltoes 0
610
root 7.21932 15.7484 24.9787 40.1441 -86.7693 -23.371
lowerback -17.8804 0.272483 -0.412213
upperback -6.92178 -0.0337658 1.25602
thorax 2.60566 -0.172242 1.54393
lowerneck -20.633 7.08671 8.37936
upperneck 24.481 8.08687 -3.55107
head 11.9746 3.90081 -1.38542
rclavicle 4.42296e-015 7.35503e-015
rhumerus -42.7757 6.51451 -86.311
rradius 32.1174
rwrist -8.02121
rhand -16.9881 -17.9295
rfingers 7.12502
rthumb 9.2468 -47.7067
lclavicle 4.42296e-015 7.35503e-015
lhumerus -41.5358 -21.4427 96.4129
lradius 36.132
lwrist 42.0769
lhand -27.1031 -7.47569
lfingers 7.12502
lthumb -0.519645 22.5034
rfemur -24.3935 21.2012 13.2613
rtibia 26.407
rfoot -13.9924 -21.3388
rtoes -12.8455
lfemur 0 0 0
ltibia 0
lfoot 0 0
ltoes 0
611
root 7.22744 15.7509 24.9796 39.0356 -86.7009 -22.1601
lowerback -17.8542 0.275651 -0.368062
upperback -6.95823 -0.037429 1.23475
thorax 2.55358 -0.175272 1.4956
lowerneck -20.6487 7.03814 8.37105
upperneck 24.4611 7.99669 -3.47745
head 11.9599 3.86961 -1.37205
rclavicle 7.20594e-015 -9.93923e-016
rhumerus -42.9173 6.65542 -86.4284
rradius 32.3801
rwrist -7.83338
rhand -16.8772 -17.5568
rfingers 7.12502
rthumb 9.35378 -47.3293
lclavicle 7.20594e-015 -9.93923e-016
lhumerus -41.542 -21.3468 96.4255
lradius 36.4575
lwrist 42.4599
lhand -27.4015 -7.64633
lfingers 7.12502
lthumb -0.807851 22.3319
rfemur -24.5304 21.2271 13.165
rtibia 26.4246
rfoot -13.9731 -21.4594
rtoes -12.7933
lfemur 0 0 0
ltibia 0
lfoot 0 0
ltoes 0
612
root 7.23582 15.7533 24.9806 37.9551 -86.6301 -20.9801
lowerback -17.8294 0.274591 -0.326042
upperback -6.99013 -0.0460949 1.21557
thorax 2.50714 -0.180696 1.44975
lowerneck -20.6756 6.99546 8.38553
upperneck 24.4563 7.9125 -3.42446
head 11.956 3.84022 -1.36859
rclavicle -5.51627e-015 -5.1684e-015
rhumerus -43.0263 6.76007 -86.5245
rradius 32.5954
rwrist -7.62629
rhand -16.7859 -17.207
rfingers 7.12502
rthumb 9.4419 -46.9755
lclavicle -5.51627e-015 -5.1684e-015
lhumerus -41.5111 -21.2045 96.4193
lradius 36.7121
lwrist 42.753
lhand -27.6739 -7.79758
lfingers 7.12502
lthumb -1.07098 22.1795
rfemur -24.6661 21.2408 13.0707
rtibia 26.4449
rfoot -13.9541 -21.5723
rtoes -12.7286
lfemur 0 0 0
ltibia 0
lfoot 0 0
ltoes 0
613
root 7.24444 15.7558 24.9817 36.8656 -86.5594 -19.7927
lowerback -17.8043 0.275648 -0.279665
upperback -7.01975 -0.0521296 1.18798
thorax 2.46291 -0.184939 1.39308
lowerneck -20.703 6.95388 8.40691
upperneck 24.4551 7.8268 -3.36924
head 11.9537 3.81105 -1.36564
rclavicle 1.26725e-015 -1.5704e-014
rhumerus -43.1006 6.79238 -86.5859
rradius 32.7496
rwrist -7.34503
rhand -16.8374 -16.9352
rfingers 7.12502
rthumb 9.39227 -46.706
lclavicle 1.26725e-015 -1.5704e-014
lhumerus -41.4763 -21.0854 96.4196
lradius 36.9343
lwrist 43.0302
lhand -27.9716 -7.92328
lfingers 7.12502
lthumb -1.35851 22.0521
rfemur -24.8025 21.2548 12.9722
rtibia 26.4675
rfoot -13.9365 -21.6876
rtoes -12.6609
lfemur 0 0 0
ltibia 0
lfoot 0 0
ltoes 0
614
root 7.2532 15.7581 24.9827 35.7988 -86.4891 -18.6327
lowerback -17.7795 0.275562 -0.233903
upperback -7.04371 -0.0590822 1.15813
thorax 2.42487 -0.189564 1.33423
lowerneck -20.738 6.91563 8.42702
upperneck 24.4604 7.74456 -3.31002
head 11.9555 3.78368 -1.36015
rclavicle 8.57259e-015 -9.93923e-016
rhumerus -43.1344 6.76613 -86.6108
rradius 32.8384
rwrist -7.00312
rhand -17.0201 -16.7394
rfingers 7.12502
rthumb 9.21593 -46.518
lclavicle 8.57259e-015 -9.93923e-016
lhumerus -41.4234 -20.9642 96.4162
lradius 37.1088
lwrist 43.2577
lhand -28.2688 -8.02974
lfingers 7.12502
lthumb -1.64549 21.9437
rfemur -24.9352 21.2754 12.8718
rtibia 26.4919
rfoot -13.9214 -21.8078
rtoes -12.5895
lfemur 0 0 0
ltibia 0
lfoot 0 0
ltoes 0
615
root 7.26205 15.7603 24.9837 34.8278 -86.4186 -17.5735
lowerback -17.7567 0.276874 -0.183406
upperback -7.06094 -0.0645099 1.12677
thorax 2.39499 -0.19341 1.27143
lowerneck -20.7799 6.87804 8.44386
upperneck 24.4691 7.66209 -3.24504
head 11.9595 3.75658 -1.35181
rclavicle -8.80865e-015 1.49089e-014
rhumerus -43.1278 6.68543 -86.6022
rradius 32.8635
rwrist -6.61571
rhand -17.2538 -16.6025
rfingers 7.12502
rthumb 8.9904 -46.3909
lclavicle -8.80865e-015 1.49089e-014
lhumerus -41.3502 -20.8457 96.4091
lradius 37.2326
lwrist 43.4292
lhand -28.5393 -8.12062
lfingers 7.12502
lthumb -1.90682 21.8506
rfemur -25.0628 21.3028 12.7757
rtibia 26.5163
rfoot -13.9074 -21.9305
rtoes -12.5171
lfemur 0 0 0
ltibia 0
lfoot 0 0
ltoes 0
616
root 7.27083 15.7622 24.9846 33.97 -86.3512 -16.6355
lowerback -17.7383 0.271469 -0.139091
upperback -7.06724 -0.0776713 1.10695
thorax 2.37917 -0.200701 1.22283
lowerneck -20.8169 6.84656 8.44431
upperneck 24.4672 7.59255 -3.17422
head 11.9584 3.73462 -1.33656
rclavicle -7.8023e-015 9.93923e-015
rhumerus -43.0755 6.58145 -86.56
rradius 32.8271
rwrist -6.20066
rhand -17.5239 -16.5177
rfingers 7.12502
rthumb 8.72977 -46.3172
lclavicle -7.8023e-015 9.93923e-015
lhumerus -41.2256 -20.6563 96.379
lradius 37.274
lwrist 43.4971
lhand -28.7809 -8.20922
lfingers 7.12502
lthumb -2.14015 21.7598
rfemur -25.1817 21.3323 12.6868
rtibia 26.54
rfoot -13.8903 -22.0517
rtoes -12.4678
lfemur 0 0 0
ltibia 0
lfoot 0 0
ltoes 0
